<?xml version="1.0" standalone="no"?>
<!DOCTYPE svg PUBLIC "-//W3C//DTD SVG 20010904//EN"
 "http://www.w3.org/TR/2001/REC-SVG-20010904/DTD/svg10.dtd">
<svg version="1.0" xmlns="http://www.w3.org/2000/svg"
 width="225.000000pt" height="225.000000pt" viewBox="0 0 225.000000 225.000000"
 preserveAspectRatio="xMidYMid meet">

<g transform="translate(0.000000,225.000000) scale(0.100000,-0.100000)"
fill="#000000" stroke="none">
<path d="M1 1913 c1 -246 4 -316 10 -258 18 170 77 304 179 405 109 108 242
164 426 179 74 6 10 9 -258 10 l-358 1 1 -337z"/>
<path d="M1655 2239 c170 -18 304 -77 405 -179 108 -109 164 -242 179 -426 6
-74 9 -10 10 259 l1 357 -337 -1 c-246 -1 -316 -4 -258 -10z"/>
<path d="M720 2040 c-165 -8 -221 -20 -303 -63 -99 -52 -165 -146 -193 -276
-34 -156 -27 -1057 9 -1187 44 -157 149 -254 316 -290 156 -34 1056 -27 1187
9 158 44 254 148 290 316 34 156 27 1057 -9 1187 -43 157 -149 253 -316 290
-78 17 -745 27 -981 14z m1076 -199 c35 -21 64 -75 64 -118 0 -61 -72 -133
-134 -133 -69 0 -136 68 -136 140 0 100 119 164 206 111z m-531 -156 c204 -52
368 -216 420 -420 19 -76 19 -204 0 -280 -52 -204 -216 -368 -420 -420 -76
-19 -204 -19 -280 0 -202 52 -368 218 -420 420 -19 76 -19 204 0 280 52 201
215 366 415 419 73 19 211 20 285 1z"/>
<path d="M1028 1485 c-270 -74 -365 -406 -175 -612 142 -154 369 -163 524 -20
154 142 163 369 20 524 -95 103 -236 145 -369 108z"/>
<path d="M1 358 l-1 -358 338 1 c245 1 315 4 257 10 -170 18 -304 77 -405 179
-108 109 -164 242 -179 426 -6 74 -9 10 -10 -258z"/>
<path d="M2237 593 c-12 -159 -74 -300 -177 -403 -107 -107 -242 -164 -426
-179 -74 -6 -10 -9 259 -10 l357 -1 0 335 c0 184 -2 335 -4 335 -1 0 -6 -35
-9 -77z"/>
</g>
</svg>
